<svg width="164" height="224" viewBox="0 0 164 224" fill="none" xmlns="http://www.w3.org/2000/svg">
<path d="M43.9095 2.00284C40.8356 21.7335 38.7637 41.7158 37.6145 61.6581C37.3711 65.8571 37.2805 72.413 42.3414 73.8432C46.4229 74.9873 50.929 72.0812 54.1217 69.8387C64.2773 62.8023 72.8536 53.2201 80.9657 43.924C82.7035 41.9332 84.7358 39.9539 86.2133 37.7457C87.2719 36.1668 87.0228 34.0959 86.5926 32.311C85.3981 27.3741 81.6789 23.1579 78.1012 19.8342C69.1174 11.5221 57.8522 5.80137 46.8475 0.784335C44.5435 -0.268271 42.5225 3.1813 44.8492 4.21675C54.501 8.67888 64.3283 13.6044 72.6158 20.3948C76.3407 23.4382 80.2864 27.0995 82.1884 31.6646C82.3901 32.1707 82.5622 32.6883 82.7036 33.2149C82.8136 33.6101 82.8912 34.0138 82.9356 34.422C82.9356 34.7652 82.9356 35.1027 82.9356 35.446C82.9356 35.9151 83.1621 35.446 82.9356 35.6519C82.8224 35.7434 83.915 34.4506 82.9017 35.5375C81.9846 36.5214 81.1581 37.6198 80.2807 38.6438C73.0404 47.1047 65.4548 55.4512 56.9522 62.6707C53.6518 65.4624 49.593 69.0378 45.2624 69.9531C44.0793 70.2048 43.1679 70.2105 42.5565 69.4611C41.6394 68.317 41.4696 66.2175 41.4583 64.6043C41.4017 57.8024 42.2735 50.8746 42.8735 44.1128C43.4962 37.0687 44.2265 30.0361 45.0643 23.0149C45.8511 16.3618 46.6946 9.7086 47.7249 3.08977C48.1268 0.544066 44.3114 -0.542863 43.9095 2.00284Z" fill="#333333"/>
<path d="M153.463 5.52602C156.254 23.4318 158.128 41.5663 159.334 59.6208C159.554 62.956 160.358 67.0577 159.334 70.37C158.915 71.7429 158.462 72.3493 157.381 72.5267C154.443 73.0015 149.937 69.5691 147.4 67.6641C138.269 60.7993 130.418 52.0237 122.9 43.4313C121.696 42.0507 120.504 40.6605 119.322 39.2609C118.943 38.8147 118.321 37.6705 117.777 37.4074C116.356 36.7095 118.785 38.5515 118.23 38.111C117.936 37.8879 118.23 38.4028 118.23 37.9051C118.145 37.1501 118.23 36.3853 118.479 35.6683C119.611 31.2519 123.313 27.4534 126.687 24.45C135.303 16.7786 145.997 11.4526 156.379 6.71592C158.7 5.6576 156.684 2.20803 154.38 3.28351C144.106 7.96875 133.82 13.2547 125.108 20.5829C121.145 23.9123 117.239 27.9111 115.275 32.8194C114.533 34.6615 113.797 37.1957 114.437 39.1922C115.003 40.9485 116.956 42.6246 118.111 43.9519C125.957 53.1049 134.211 62.258 143.676 69.7865C147.242 72.6125 151.663 76.1479 156.384 76.5083C160.97 76.8629 163.177 73.1617 163.602 69.0027C164.236 62.71 163.087 56.0225 162.566 49.7583C161.936 42.2147 161.181 34.6843 160.302 27.1674C159.424 19.5875 158.473 12.0133 157.301 4.47341C156.888 1.93343 153.067 3.00892 153.463 5.52602Z" fill="#333333"/>
<path d="M154.81 84.0422C154.491 80.3421 153.729 76.8083 152.587 73.458L134.167 56.7745C134.505 57.0827 120.631 41.2233 121.444 41.578C120.648 41.2248 119.846 40.8871 119.039 40.5651C107.673 36.0318 94.4497 34.3415 82.32 36.9517C82.32 36.9517 65.8726 56.2815 60.2779 60.71L48.6112 68.8769C48.3559 69.8017 48.1258 70.7347 47.921 71.6741C46.2228 79.3742 46.0642 87.4289 45.7529 95.2777C45.5378 100.77 45.5265 106.261 45.5661 111.759C45.5661 114.568 45.617 117.342 44.966 120.008C44.0999 123.584 42.43 126.947 40.8676 130.254C37.5729 137.227 34.4934 143.669 35.1331 151.632C35.4133 154.832 36.0806 157.984 37.12 161.02C37.6861 162.736 38.2069 165.482 39.2372 166.952C39.2934 167.107 39.3278 167.268 39.3391 167.433C39.1523 167.433 40.4317 166.008 40.4713 166.289C39.9485 166.061 39.4383 165.805 38.9428 165.522C37.1483 164.189 35.6425 162.267 34.3066 160.488C30.661 155.625 27.5588 149.962 26.1266 144.001C25.5265 141.501 25.1756 138.721 25.9681 136.226C27.004 132.937 30.3213 131.078 32.0705 128.183C34.7878 123.681 35.0255 117.714 32.0705 113.252C30.8251 111.376 28.4136 110.392 26.3191 109.888C20.7714 108.527 15.2916 110.649 10.9328 114.104C5.62285 118.309 1.30925 123.83 0.301614 130.694C-0.558842 136.65 0.522388 142.805 2.2716 148.532C5.86061 160.448 12.2461 171.883 20.0242 181.511C22.181 184.183 24.7057 187.398 27.9494 188.719C31.3459 190.092 35.3086 190.304 38.9089 190.641C51.561 191.814 64.3489 191.82 77.0406 191.82C82.5549 191.82 88.0804 191.685 93.6055 191.588C96.3996 191.54 102.047 206.611 111.92 213.801C124.069 222.649 144.478 223.967 144.478 223.967L150.583 189.401C156.193 188.016 153.214 185.613 156.304 180.213C157.861 177.495 158.699 174.04 159.61 171.06C160.326 168.791 160.871 166.472 161.241 164.12C162.067 158.548 161.586 152.919 161.037 147.342C159.905 135.769 158.484 124.23 157.352 112.657C156.42 103.123 155.572 93.5882 154.81 84.0537C154.606 81.5023 150.638 81.4794 150.847 84.0537C152.153 100.239 153.693 116.402 155.467 132.542C156.316 140.225 157.425 147.948 157.697 155.682C157.908 160.144 157.374 164.609 156.118 168.891C155.347 171.667 154.433 174.399 153.378 177.078C152.097 180.228 150.86 208.39 146.513 219.901C144.478 223.967 136.338 221.934 136.338 221.934L118.024 215.834L105.815 205.667C100.963 205.404 93.6055 187.367 93.6055 187.367C80.8741 187.556 70.123 187.901 57.3973 187.569C51.6459 187.421 45.8944 187.209 40.1599 186.723C36.6842 186.431 32.5857 186.351 29.3137 184.955C26.8625 183.908 24.3038 180.539 22.5206 178.273C18.8823 173.634 15.6616 168.676 12.8971 163.457C7.5702 153.571 1.45644 140.093 4.80202 128.601C6.63049 122.308 12.9084 116.015 19.0618 114.03C21.1349 113.334 23.361 113.247 25.4813 113.778C26.7153 114.104 27.6211 114.825 28.7589 115.277C29.0929 115.409 28.4985 114.98 28.4928 114.968C28.7815 115.54 29.2005 116.084 29.4722 116.684C30.0304 117.95 30.3188 119.32 30.3188 120.706C30.3188 122.092 30.0304 123.462 29.4722 124.728C28.0173 128.04 24.785 129.808 23.1263 132.914C22.0223 135.066 21.4953 137.472 21.5979 139.893C21.7451 145.665 24.1566 151.335 26.9078 156.3C29.291 160.591 32.2347 165.081 36.0275 168.245C37.9918 169.887 42.9621 171.952 43.2961 167.627C43.4093 166.14 42.6281 164.555 42.1186 163.205C41.1573 160.773 40.3647 158.277 39.7467 155.734C38.899 152.118 38.7797 148.367 39.3957 144.704C40.1203 140.7 41.9714 137.187 43.7093 133.543C45.4076 130.002 47.1794 126.427 48.3569 122.674C50.3722 116.244 49.4325 109.093 49.5287 102.463C49.6419 94.5225 49.9193 86.4907 50.7911 78.5962C51.0932 75.5752 51.6661 72.5937 52.5001 69.6876C53.2072 67.2238 66.1113 58.7422 66.1113 58.7422L82.32 41.2233C88.6602 39.6866 95.4175 39.3963 102.05 40.2504C108.626 41.0966 115.262 43.0062 121.444 45.9084C127.302 48.6589 132.223 58.7422 132.223 58.7422C132.223 58.7422 143.559 63.6706 145.834 67.7465C146.387 68.7379 146.904 69.7535 147.383 70.7931C149.294 74.9782 150.47 79.4672 150.859 84.0594C151.068 86.5879 155.031 86.6108 154.81 84.0422Z" fill="#333333"/>
<path d="M97.6541 89.3281C97.2635 96.9538 85.2001 96.9652 84.8095 89.3281C84.6793 86.7653 80.7167 86.7481 80.8469 89.3281C81.4979 102.102 100.966 102.108 101.617 89.3281C101.747 86.7538 97.7843 86.7595 97.6541 89.3281Z" fill="#333333"/>
<path d="M114.493 89.3281C114.103 96.9538 102.039 96.9652 101.649 89.3281C101.518 86.7653 97.5558 86.7481 97.686 89.3281C98.337 102.102 117.805 102.108 118.456 89.3281C118.586 86.7538 114.623 86.7595 114.493 89.3281Z" fill="#333333"/>
<path d="M131.875 75.8218C131.728 72.7049 130.387 69.768 128.136 67.6326C125.884 65.4972 122.899 64.3308 119.811 64.3804C113.381 64.3804 108.014 69.2602 107.748 75.8218C107.64 78.3961 111.603 78.3961 111.711 75.8218C112.107 66.1481 127.516 66.1367 127.912 75.8218C128.02 78.3904 131.982 78.4018 131.875 75.8218Z" fill="#333333"/>
<path d="M89.3413 75.4509C89.1946 72.3341 87.8537 69.3971 85.6022 67.2617C83.3507 65.1263 80.3653 63.96 77.2779 64.0096C70.8471 64.0096 65.4806 68.8893 65.2146 75.4509C65.107 78.0252 69.0696 78.0252 69.1772 75.4509C69.5734 65.7773 84.9824 65.7658 85.3787 75.4509C85.4862 78.0195 89.4488 78.031 89.3413 75.4509Z" fill="#333333"/>
<path d="M105.673 84.3691C105.486 85.7936 101.988 86.8862 100.918 87.0579C98.8971 87.3839 95.2968 86.7089 94.125 84.7124C93.8136 84.1746 93.6721 85.027 94.0004 84.5465C94.2269 84.2147 95.0194 84.0659 95.376 83.9744C96.6302 83.6025 97.9297 83.41 99.2368 83.4023C100.369 83.4023 105.464 83.3337 105.73 84.9183C106.143 87.4526 109.964 86.3771 109.551 83.8543C108.804 79.3121 101.06 79.1748 97.7876 79.478C94.7647 79.7583 88.7754 81.1026 90.0322 85.4561C91.1983 89.512 96.9215 91.3941 100.601 91.1195C104.281 90.8449 109.092 88.4937 109.63 84.3863C109.97 81.8234 106.007 81.852 105.673 84.3691Z" fill="#333333"/>
<path d="M89.9777 37.7443L89.7626 49.7578C89.7173 52.3378 93.6799 52.3378 93.7252 49.7578L93.9403 37.7443C93.9856 35.1643 90.023 35.1643 89.9777 37.7443Z" fill="#333333"/>
<path d="M97.2707 37.744L97.0556 49.7574C97.0103 52.3374 100.973 52.3374 101.018 49.7574L101.233 37.744C101.111 37.0966 97.316 35.1639 97.2707 37.744Z" fill="#333333"/>
<path d="M104.364 39.0648V49.7578C104.319 52.3378 108.282 52.3378 108.327 49.7578V39.0648C108.372 36.4848 104.41 36.4848 104.364 39.0648Z" fill="#333333"/>
</svg>
