<svg width="207" height="213" viewBox="0 0 207 213" fill="none" xmlns="http://www.w3.org/2000/svg">
<path d="M111.928 6.46645C110.089 6.43785 106.918 6.43785 105.701 8.18265C105.672 8.22536 105.642 8.26639 105.611 8.30575C102.49 13.5682 102.737 20.3052 103.052 26.22C103.194 28.9773 102.854 29.1693 103.052 31.9209L99.2026 30.6487C99.0894 27.468 99.4064 30.8823 99.2026 27.7073C98.7483 20.7423 98.4946 12.8019 102.05 6.56767C102.108 6.42281 102.186 6.27613 102.288 6.12893C106.981 -0.56999 119.186 2.89674 125.339 4.98479C136.219 8.65747 145.384 15.3793 152.885 24.1033C157.883 29.9327 165.554 39.7036 163.193 48.1302C160.912 56.2535 150.451 53.9653 144.79 51.677C134.556 47.5194 125.367 40.1786 118.047 31.7925C117.056 34.5454 115.688 37.1621 114.187 39.6464L111.283 36.6774C113.087 33.7243 114.424 30.5049 115.246 27.1353C115.551 25.7566 117.623 25.1102 118.557 26.2543C125.905 35.3788 135.563 43.8225 146.539 48.1016C150.853 49.7777 160.125 52.1747 159.559 44.5719C158.931 36.2312 151.634 28.2108 146.109 22.6846C139.532 15.9867 131.413 11.0431 122.48 8.29707C119.067 7.184 115.514 6.56761 111.928 6.46645Z" fill="#333333"/>
<path d="M47.7654 0.162397C54.2188 -0.323861 64.4084 -0.163682 67.2389 7.17023C67.3192 7.37986 67.3635 7.57908 67.3768 7.76659C69.2987 15.1888 67.6772 22.7987 65.4217 29.8928L61.1646 31.4839C63.044 25.4772 65.1557 14.487 63.3951 8.24C63.3777 8.17863 63.363 8.11813 63.3509 8.05854C62.1057 5.32823 57.9869 4.59873 55.4133 4.28129C50.7657 3.70922 45.9483 4.2012 41.3743 5.07074C31.7552 6.85193 22.5235 10.338 14.1058 15.368C10.8855 17.351 5.2147 21.1168 4.2263 25.5336L12.5534 21.6452L14.9509 33.7966C17.7553 33.7834 20.5277 33.3763 22.4895 33.062C31.9717 31.5322 41.1321 28.4033 49.5882 23.806C49.8895 23.6353 50.2293 23.5462 50.5747 23.5473C50.9201 23.5485 51.2594 23.6398 51.5596 23.8125C51.8597 23.9852 52.1106 24.2333 52.2879 24.5329C52.4652 24.8325 52.5629 25.1732 52.5715 25.5222C52.9904 32.141 52.7245 30.7855 53.3868 37.3871L49.5882 39.3549C49.0689 33.9949 49.0197 32.5908 48.7863 28.7097C38.6698 33.8138 26.8886 37.5825 15.6568 37.6558C15.0324 37.6601 14.3908 37.6442 13.7404 37.6048L11.6985 24.5329L0.886693 29.5162L0.142942 26.9697C0.0598931 19.3007 8.49704 13.8116 14.3265 10.5912C24.4878 4.97921 36.1832 1.02622 47.7654 0.162397Z" fill="#333333"/>
<path d="M206.226 143.825C205.553 139.993 202.745 136.577 200.152 133.86C196.628 130.17 192.501 127.12 187.953 124.844C183.56 122.665 178.601 121.126 173.653 121.555C170.704 121.812 166.017 122.647 164.97 126.017C164.109 128.797 166.481 131.4 168.219 133.214C171.015 136.131 174.18 138.683 176.784 141.795C179.762 145.359 180.809 148.659 179.801 153.282C178.458 158.959 175.707 164.197 171.808 168.504C168.825 171.868 164.522 175.821 159.779 175.999C159.284 175.921 158.784 175.891 158.284 175.907L157.797 175.787C158.469 176.264 158.72 176.805 158.55 177.412C158.711 177.003 158.832 176.579 158.912 176.147C159.479 174.397 160.214 172.715 160.798 170.964C164.302 160.518 164.126 148.968 156.473 140.364C149.04 132.006 144.381 121.566 140.73 111.04C138.753 105.413 137.142 99.6607 135.907 93.8209C134.859 88.7696 134.554 83.7182 133.954 78.6039C131.984 61.808 125.762 44.5659 112.289 33.7366C107.002 29.5212 100.874 26.514 94.3262 24.922C87.7786 23.3301 80.9673 23.1911 74.3614 24.5149C60.2998 27.215 48.0496 36.1336 39.8866 47.8667C35.1397 54.8162 31.6867 62.5823 29.697 70.7837C27.5119 79.5135 27.2628 88.4035 26.7307 97.3392C24.6135 132.985 21.3529 168.573 18.0582 204.121C17.9827 204.922 17.9073 205.723 17.8318 206.524C17.8314 206.962 17.9736 207.388 18.2365 207.737C18.4994 208.085 18.8684 208.336 19.2866 208.452C28.5931 209.997 38.0298 210.929 47.4326 211.587C65.2078 212.834 83.4528 213.04 101.007 209.59C105.183 208.8 109.294 207.688 113.303 206.267C114.242 205.923 115.199 205.357 116.071 205.203C116.966 205.149 117.865 205.181 118.754 205.3C126.476 205.563 134.203 205.786 141.93 205.872C159.003 206.118 176.563 205.397 190.427 193.99C205.207 181.828 208.808 162.023 206.238 143.803C205.881 141.263 202.06 142.344 202.416 144.867C204.652 160.724 201.777 177.961 189.742 189.299C176.971 201.313 159.479 202.102 142.977 201.885C135.312 201.787 127.653 201.57 119.988 201.313C118.618 201.267 117.067 200.998 115.697 201.164C113.942 201.376 112.103 202.457 110.416 203.012C108.519 203.635 106.6 204.156 104.664 204.659C87.8174 208.835 69.9516 208.812 52.7255 207.886C41.8694 207.385 31.0485 206.285 20.3113 204.591L21.7661 206.518C24.6588 175.701 27.3534 144.861 29.5612 113.986C30.8065 96.5268 29.9687 78.0605 36.8354 61.6478C42.5189 48.1012 53.0142 36.3738 66.7306 30.8934C78.7713 26.0881 92.5272 26.3912 103.94 32.8041C117.826 40.6186 125.547 55.5553 128.729 70.8352C129.787 75.9209 130.121 81.0238 130.687 86.1724C131.283 91.2472 132.25 96.2703 133.58 101.201C136.495 112.31 140.583 123.42 146.396 133.334C147.556 135.327 148.826 137.252 150.2 139.1C151.842 141.291 153.857 143.179 155.38 145.45C158.743 150.479 159.733 156.485 158.856 162.429C158.239 166.599 156.75 170.484 155.329 174.443C154.401 177.023 154.259 179.196 157.48 179.831C166.719 181.656 175.295 171.794 179.433 164.729C182.003 160.347 183.894 155.375 184.211 150.261C184.46 146.297 182.671 142.87 180.288 139.844C177.786 136.675 174.712 134.072 171.859 131.263C170.846 130.262 167.947 127.922 169.238 126.835C170.727 125.576 173.818 125.491 175.635 125.531C178.209 125.633 180.747 126.168 183.147 127.115C188.118 129.058 192.641 132.014 196.433 135.799C198.935 138.248 201.777 141.325 202.411 144.952C202.852 147.424 206.673 146.348 206.226 143.825Z" fill="#333333"/>
<path d="M80.6041 83.7933C80.2022 93.118 65.3706 93.1352 64.9631 83.7933C64.8498 81.2247 60.8872 81.2133 61.0004 83.7933C61.1413 86.8388 62.4509 89.709 64.6513 91.7949C66.8518 93.8808 69.7699 95.0182 72.7864 94.9658C79.0813 94.9658 84.295 90.2004 84.5667 83.8162C84.6799 81.2419 80.7173 81.2476 80.6041 83.8162V83.7933Z" fill="#333333"/>
<path d="M100.249 83.7933C99.8474 93.118 85.0159 93.1352 84.6083 83.7933C84.4951 81.2247 80.5325 81.2133 80.6457 83.7933C80.7866 86.8378 82.0954 89.7072 84.2946 91.7929C86.4938 93.8786 89.4104 95.0167 92.426 94.9658C98.7209 94.9658 103.935 90.2004 104.206 83.8162C104.32 81.2419 100.357 81.2476 100.244 83.8162L100.249 83.7933Z" fill="#333333"/>
<path d="M90.067 95.2337C89.6651 104.558 74.8335 104.576 74.4259 95.2337C74.3127 92.6651 70.3501 92.6537 70.4633 95.2337C70.6042 98.2782 71.913 101.148 74.1122 103.233C76.3114 105.319 79.2281 106.457 82.2436 106.406C88.5386 106.406 93.7522 101.641 94.024 95.2566C94.1372 92.6823 90.1746 92.688 90.0613 95.2566L90.067 95.2337Z" fill="#333333"/>
<path d="M120.642 66.6987C120.376 59.2618 114.188 53.7185 106.897 53.7185C99.6058 53.7185 93.4241 59.2676 93.1524 66.6987C93.0618 69.2788 97.0245 69.273 97.115 66.6987C97.5396 54.9885 116.255 54.9828 116.674 66.6987C116.764 69.2673 120.727 69.2788 120.636 66.6987H120.642Z" fill="#333333"/>
<path d="M73.6782 66.3622C73.4122 58.9253 67.2248 53.382 59.9336 53.382C52.6424 53.382 46.4607 58.9253 46.1946 66.3622C46.1041 68.9422 50.0667 68.9365 50.1573 66.3622C50.5818 54.652 69.2967 54.6462 69.7156 66.3622C69.8062 68.9308 73.7688 68.9422 73.6782 66.3622Z" fill="#333333"/>
<path d="M89.9346 78.0093C89.6912 80.0859 85.1229 81.3902 83.5775 81.539C81.415 81.7449 76.6485 80.8639 75.7031 78.3811C75.4767 77.8091 75.1767 78.7759 75.7031 77.975C75.9975 77.5459 76.9316 77.4029 77.4014 77.2313C78.9542 76.7657 80.5652 76.5287 82.1849 76.5276C83.5888 76.499 89.7025 76.459 90.0026 78.5413C90.3649 81.0813 94.1803 80.0001 93.8237 77.4773C93.1104 72.4488 84.2681 72.3287 80.7074 72.5918C77.4411 72.8607 70.3196 74.2108 71.65 79.0905C72.901 83.6671 79.4563 85.8238 83.5718 85.5434C87.6873 85.2631 93.3425 82.6831 93.8916 78.0093C94.2199 75.4522 90.2517 75.475 89.9346 78.0093Z" fill="#333333"/>
<path d="M79.9306 90.5205L79.7212 94.4049C79.7212 94.9359 79.9299 95.4452 80.3015 95.8207C80.6731 96.1962 81.177 96.4071 81.7025 96.4071C82.228 96.4071 82.7319 96.1962 83.1035 95.8207C83.4751 95.4452 83.6838 94.9359 83.6838 94.4049L83.8989 90.5205C83.8989 89.9895 83.6902 89.4802 83.3186 89.1048C82.947 88.7293 82.4431 88.5183 81.9176 88.5183C81.3921 88.5183 80.8882 88.7293 80.5166 89.1048C80.145 89.4802 79.9363 89.9895 79.9363 90.5205H79.9306Z" fill="#333333"/>
</svg>
