<svg width="146" height="135" viewBox="0 0 146 135" fill="none" xmlns="http://www.w3.org/2000/svg">
<g filter="url(#filter0_ii_2_3)">
<path d="M128.029 3.32078C129.62 3.99254 130.416 4.32842 134.638 8.17773C137.418 10.7116 142.65 18.7763 143.831 22.3476C145.626 27.7728 145.559 31.0547 145.427 37.6186C144.556 80.7886 137.786 88.3202 85.1981 128.903C81.6221 131.662 79.834 133.042 77.8741 133.633C75.9182 134.223 73.8192 134.261 71.8433 133.742C69.8634 133.222 68.0276 131.908 64.3557 129.279C8.25346 89.1199 1.05849 81.0698 0.135749 37.6193C-0.00724798 30.8858 -0.0787462 27.519 1.59724 22.246C2.7366 18.6613 7.53017 10.9457 10.2391 8.3362C14.224 4.49766 15.2652 4.01033 17.3478 3.03571C51.395 -12.8983 66.876 39.083 73.1217 39.083C79.311 39.083 95.6971 -10.3324 128.029 3.32078Z" fill="#F89595"/>
<path d="M126.948 5.87974C127.694 6.19488 128.072 6.35564 128.751 6.83194C129.521 7.3716 130.664 8.31406 132.767 10.2307C133.876 11.2407 135.717 13.6304 137.504 16.3854C139.291 19.1404 140.723 21.7962 141.194 23.2197C142.826 28.1528 142.782 31.0111 142.65 37.5624C142.216 59.0518 140.303 71.0256 132.407 82.6721C124.337 94.5746 109.921 106.315 83.5011 126.703C79.7407 129.606 78.4228 130.567 77.0722 130.974C75.6068 131.416 74.0294 131.444 72.5491 131.056C71.1847 130.697 69.8336 129.784 65.9724 127.02C37.7952 106.851 22.4133 95.0757 13.8117 83.066C5.40093 71.3228 3.372 59.1787 2.9129 37.5603C2.76972 30.8183 2.72326 27.8737 4.24451 23.0874C4.70428 21.6409 6.03178 19.0589 7.68908 16.3913C9.34637 13.7238 11.0731 11.3898 12.1662 10.3368C14.1331 8.44214 15.2698 7.47713 16.1152 6.87676C16.9117 6.31111 17.4918 6.03526 18.5252 5.5516C26.3518 1.88874 32.8891 2.18761 38.4821 4.51112C44.2047 6.88843 49.1763 11.4887 53.5012 16.8318C57.4089 21.6592 60.6328 26.8894 63.3562 31.3077C63.6422 31.7718 63.9228 32.2269 64.1979 32.6716C65.6144 34.9606 66.9431 37.0612 68.1406 38.592C68.7379 39.3557 69.3901 40.0927 70.0907 40.6608C70.7442 41.1907 71.7885 41.8608 73.1217 41.8608C74.4075 41.8608 75.4333 41.2414 76.0928 40.7361C76.7966 40.1968 77.4574 39.4948 78.066 38.7643C79.2851 37.3012 80.6413 35.2944 82.085 33.1034C82.4289 32.5814 82.7808 32.0443 83.141 31.4947C85.871 27.328 89.0776 22.434 92.902 17.8649C97.2359 12.6869 102.18 8.15758 107.797 5.6922C113.298 3.27743 119.589 2.77206 126.948 5.87974Z" stroke="white" stroke-width="5"/>
</g>
<defs>
<filter id="filter0_ii_2_3" x="-3.93191" y="1.79059e-05" width="149.418" height="138.105" filterUnits="userSpaceOnUse" color-interpolation-filters="sRGB">
<feFlood flood-opacity="0" result="BackgroundImageFix"/>
<feBlend mode="normal" in="SourceGraphic" in2="BackgroundImageFix" result="shape"/>
<feColorMatrix in="SourceAlpha" type="matrix" values="0 0 0 0 0 0 0 0 0 0 0 0 0 0 0 0 0 0 127 0" result="hardAlpha"/>
<feOffset dy="4"/>
<feGaussianBlur stdDeviation="2"/>
<feComposite in2="hardAlpha" operator="arithmetic" k2="-1" k3="1"/>
<feColorMatrix type="matrix" values="0 0 0 0 0 0 0 0 0 0 0 0 0 0 0 0 0 0 0.25 0"/>
<feBlend mode="normal" in2="shape" result="effect1_innerShadow_2_3"/>
<feColorMatrix in="SourceAlpha" type="matrix" values="0 0 0 0 0 0 0 0 0 0 0 0 0 0 0 0 0 0 127 0" result="hardAlpha"/>
<feOffset dx="-5" dy="10"/>
<feGaussianBlur stdDeviation="2"/>
<feComposite in2="hardAlpha" operator="arithmetic" k2="-1" k3="1"/>
<feColorMatrix type="matrix" values="0 0 0 0 0 0 0 0 0 0 0 0 0 0 0 0 0 0 0.25 0"/>
<feBlend mode="normal" in2="effect1_innerShadow_2_3" result="effect2_innerShadow_2_3"/>
</filter>
</defs>
</svg>
