<svg width="350" height="242" viewBox="0 0 350 242" fill="none" xmlns="http://www.w3.org/2000/svg">
<path d="M43.9095 20.0028C40.8356 39.7335 38.7637 59.7158 37.6145 79.6581C37.3711 83.8571 37.2805 90.413 42.3414 91.8432C46.4229 92.9873 50.929 90.0812 54.1217 87.8387C64.2773 80.8023 72.8536 71.2201 80.9657 61.924C82.7035 59.9332 84.7358 57.9539 86.2133 55.7457C87.2719 54.1668 87.0228 52.0959 86.5926 50.311C85.3981 45.3741 81.6789 41.1579 78.1012 37.8342C69.1174 29.5221 57.8522 23.8014 46.8475 18.7843C44.5435 17.7317 42.5225 21.1813 44.8492 22.2167C54.501 26.6789 64.3283 31.6044 72.6158 38.3948C76.3407 41.4382 80.2863 45.0995 82.1884 49.6646C82.3901 50.1707 82.5622 50.6883 82.7036 51.2149C82.8136 51.6101 82.8912 52.0138 82.9356 52.422C82.9356 52.7652 82.9356 53.1027 82.9356 53.446C82.9356 53.9151 83.1621 53.446 82.9356 53.6519C82.8224 53.7434 83.915 52.4506 82.9017 53.5375C81.9846 54.5214 81.1581 55.6198 80.2807 56.6438C73.0404 65.1047 65.4548 73.4512 56.9521 80.6707C53.6518 83.4624 49.593 87.0378 45.2624 87.9531C44.0793 88.2048 43.1679 88.2105 42.5565 87.4611C41.6394 86.317 41.4696 84.2175 41.4583 82.6043C41.4017 75.8024 42.2735 68.8746 42.8735 62.1128C43.4962 55.0687 44.2265 48.0361 45.0643 41.0149C45.8511 34.3618 46.6946 27.7086 47.7249 21.0898C48.1268 18.5441 44.3114 17.4571 43.9095 20.0028Z" fill="white"/>
<path d="M153.463 23.526C156.254 41.4318 158.128 59.5663 159.334 77.6208C159.554 80.956 160.358 85.0577 159.334 88.37C158.915 89.7429 158.462 90.3493 157.381 90.5267C154.443 91.0015 149.937 87.5691 147.4 85.6641C138.269 78.7993 130.418 70.0237 122.9 61.4313C121.696 60.0507 120.504 58.6606 119.322 57.2609C118.943 56.8147 118.321 55.6705 117.777 55.4074C116.356 54.7095 118.785 56.5515 118.23 56.111C117.936 55.8879 118.23 56.4028 118.23 55.9051C118.145 55.15 118.23 54.3853 118.479 53.6683C119.611 49.2519 123.313 45.4534 126.687 42.45C135.303 34.7786 145.997 29.4526 156.379 24.7159C158.7 23.6576 156.684 20.208 154.38 21.2835C144.106 25.9688 133.82 31.2547 125.108 38.5829C121.145 41.9123 117.239 45.9111 115.275 50.8194C114.533 52.6615 113.797 55.1957 114.437 57.1922C115.003 58.9485 116.956 60.6247 118.111 61.9518C125.957 71.1049 134.211 80.258 143.676 87.7865C147.242 90.6125 151.663 94.1479 156.384 94.5083C160.97 94.8629 163.177 91.1617 163.602 87.0027C164.236 80.71 163.087 74.0225 162.566 67.7583C161.936 60.2147 161.181 52.6843 160.302 45.1674C159.424 37.5875 158.473 30.0133 157.301 22.4734C156.888 19.9334 153.067 21.0089 153.463 23.526Z" fill="white"/>
<path d="M154.81 102.042C154.491 98.3421 153.729 94.8083 152.587 91.458L134.167 74.7745C134.505 75.0827 120.631 59.2233 121.444 59.578C120.648 59.2248 119.846 58.8871 119.039 58.5651C107.673 54.0318 94.4497 52.3415 82.32 54.9517C82.32 54.9517 65.8726 74.2815 60.2779 78.71L48.6112 86.8769C48.3558 87.8017 48.1258 88.7347 47.921 89.6741C46.2228 97.3742 46.0642 105.429 45.7529 113.278C45.5378 118.77 45.5265 124.261 45.5661 129.759C45.5661 132.568 45.617 135.342 44.966 138.008C44.0999 141.584 42.43 144.947 40.8676 148.254C37.5729 155.227 34.4934 161.669 35.1331 169.632C35.4133 172.832 36.0806 175.984 37.12 179.02C37.6861 180.736 38.2069 183.482 39.2372 184.952C39.2934 185.107 39.3277 185.268 39.3391 185.433C39.1523 185.433 40.4317 184.008 40.4713 184.289C39.9485 184.061 39.4383 183.805 38.9428 183.522C37.1483 182.189 35.6425 180.267 34.3066 178.488C30.661 173.625 27.5588 167.962 26.1266 162.001C25.5265 159.501 25.1756 156.721 25.9681 154.226C27.004 150.937 30.3213 149.078 32.0705 146.183C34.7878 141.681 35.0255 135.714 32.0705 131.252C30.8251 129.376 28.4136 128.392 26.3191 127.888C20.7714 126.527 15.2916 128.649 10.9328 132.104C5.62285 136.309 1.30925 141.83 0.301614 148.694C-0.558842 154.65 0.522388 160.805 2.2716 166.532C5.86061 178.448 12.2461 189.883 20.0242 199.511C22.181 202.183 24.7057 205.398 27.9494 206.719C31.3459 208.092 35.3086 208.304 38.9089 208.641C51.561 209.814 64.3489 209.82 77.0406 209.82C82.5549 209.82 88.0804 209.685 93.6055 209.588C96.3996 209.54 102.047 224.611 111.92 231.801C124.069 240.649 144.478 241.967 144.478 241.967L150.583 207.401C156.193 206.016 153.214 203.613 156.304 198.213C157.861 195.495 158.699 192.04 159.61 189.06C160.326 186.791 160.871 184.472 161.241 182.12C162.067 176.548 161.586 170.919 161.037 165.342C159.905 153.769 158.484 142.23 157.352 130.657C156.42 121.123 155.572 111.588 154.81 102.054C154.606 99.5023 150.638 99.4794 150.847 102.054C152.153 118.239 153.693 134.402 155.467 150.542C156.316 158.225 157.425 165.948 157.697 173.682C157.908 178.144 157.374 182.609 156.118 186.891C155.347 189.667 154.433 192.399 153.378 195.078C152.097 198.228 150.86 226.39 146.513 237.901C144.478 241.967 136.338 239.934 136.338 239.934L118.024 233.834L105.815 223.667C100.963 223.404 93.6055 205.367 93.6055 205.367C80.8741 205.556 70.123 205.901 57.3973 205.569C51.6459 205.421 45.8944 205.209 40.1599 204.723C36.6842 204.431 32.5857 204.351 29.3137 202.955C26.8625 201.908 24.3038 198.539 22.5206 196.273C18.8823 191.634 15.6616 186.676 12.8971 181.457C7.5702 171.571 1.45644 158.094 4.80202 146.601C6.63049 140.308 12.9084 134.015 19.0618 132.03C21.1349 131.334 23.361 131.247 25.4813 131.778C26.7153 132.104 27.6211 132.825 28.7589 133.277C29.0929 133.409 28.4985 132.98 28.4928 132.968C28.7815 133.54 29.2005 134.084 29.4722 134.684C30.0304 135.95 30.3188 137.32 30.3188 138.706C30.3188 140.092 30.0304 141.462 29.4722 142.728C28.0173 146.04 24.785 147.808 23.1263 150.914C22.0223 153.066 21.4953 155.472 21.5979 157.893C21.7451 163.665 24.1566 169.335 26.9078 174.3C29.291 178.591 32.2347 183.081 36.0275 186.245C37.9918 187.887 42.9621 189.952 43.2961 185.627C43.4093 184.14 42.6281 182.555 42.1186 181.205C41.1573 178.773 40.3647 176.277 39.7467 173.734C38.899 170.118 38.7797 166.367 39.3957 162.704C40.1203 158.7 41.9714 155.187 43.7093 151.543C45.4076 148.002 47.1794 144.427 48.3569 140.674C50.3722 134.244 49.4325 127.093 49.5287 120.463C49.6419 112.523 49.9193 104.491 50.7911 96.5962C51.0932 93.5752 51.6662 90.5936 52.5001 87.6876C53.2072 85.2238 66.1113 76.7422 66.1113 76.7422L82.32 59.2233C88.6602 57.6866 95.4175 57.3963 102.05 58.2504C108.626 59.0966 115.262 61.0062 121.444 63.9084C127.302 66.6589 132.223 76.7422 132.223 76.7422C132.223 76.7422 143.559 81.6706 145.834 85.7465C146.387 86.7379 146.904 87.7535 147.383 88.7931C149.294 92.9782 150.47 97.4672 150.859 102.059C151.068 104.588 155.031 104.611 154.81 102.042Z" fill="white"/>
<path d="M97.6541 107.328C97.2635 114.954 85.2001 114.965 84.8095 107.328C84.6793 104.765 80.7167 104.748 80.8469 107.328C81.4979 120.102 100.966 120.108 101.617 107.328C101.747 104.754 97.7843 104.76 97.6541 107.328Z" fill="white"/>
<path d="M114.493 107.328C114.103 114.954 102.039 114.965 101.649 107.328C101.518 104.765 97.5558 104.748 97.686 107.328C98.337 120.102 117.805 120.108 118.456 107.328C118.586 104.754 114.623 104.76 114.493 107.328Z" fill="white"/>
<path d="M131.875 93.8218C131.728 90.7049 130.387 87.768 128.136 85.6326C125.884 83.4972 122.899 82.3308 119.811 82.3804C113.381 82.3804 108.014 87.2602 107.748 93.8218C107.64 96.3961 111.603 96.3961 111.711 93.8218C112.107 84.1481 127.516 84.1367 127.912 93.8218C128.02 96.3904 131.982 96.4018 131.875 93.8218Z" fill="white"/>
<path d="M89.3413 93.4509C89.1946 90.3341 87.8537 87.3971 85.6022 85.2617C83.3507 83.1263 80.3653 81.96 77.2779 82.0096C70.8471 82.0096 65.4806 86.8893 65.2146 93.4509C65.107 96.0252 69.0696 96.0252 69.1772 93.4509C69.5734 83.7773 84.9824 83.7658 85.3787 93.4509C85.4862 96.0195 89.4488 96.031 89.3413 93.4509Z" fill="white"/>
<path d="M105.673 102.369C105.486 103.794 101.988 104.886 100.918 105.058C98.8971 105.384 95.2968 104.709 94.125 102.712C93.8136 102.175 93.6721 103.027 94.0004 102.546C94.2269 102.215 95.0194 102.066 95.376 101.974C96.6302 101.603 97.9297 101.41 99.2368 101.402C100.369 101.402 105.464 101.334 105.73 102.918C106.143 105.453 109.964 104.377 109.551 101.854C108.804 97.3121 101.06 97.1748 97.7876 97.478C94.7647 97.7583 88.7754 99.1026 90.0322 103.456C91.1983 107.512 96.9215 109.394 100.601 109.12C104.281 108.845 109.092 106.494 109.63 102.386C109.97 99.8234 106.007 99.852 105.673 102.369Z" fill="white"/>
<path d="M89.9777 55.7443L89.7626 67.7578C89.7173 70.3378 93.6799 70.3378 93.7252 67.7578L93.9403 55.7443C93.9856 53.1643 90.023 53.1643 89.9777 55.7443Z" fill="white"/>
<path d="M97.2707 55.744L97.0556 67.7574C97.0103 70.3374 100.973 70.3374 101.018 67.7574L101.233 55.744C101.111 55.0966 97.316 53.1639 97.2707 55.744Z" fill="white"/>
<path d="M104.364 57.0648V67.7578C104.319 70.3378 108.282 70.3378 108.327 67.7578V57.0648C108.372 54.4848 104.41 54.4848 104.364 57.0648Z" fill="white"/>
<path d="M254.928 6.46645C253.089 6.43785 249.918 6.43785 248.701 8.18265C248.672 8.22536 248.642 8.26639 248.611 8.30575C245.49 13.5682 245.737 20.3052 246.052 26.22C246.194 28.9773 245.854 29.1693 246.052 31.9209L242.203 30.6487C242.089 27.468 242.406 30.8823 242.203 27.7073C241.748 20.7423 241.495 12.8019 245.05 6.56767C245.108 6.42281 245.186 6.27613 245.288 6.12893C249.981 -0.56999 262.186 2.89674 268.339 4.98479C279.219 8.65747 288.384 15.3793 295.885 24.1033C300.883 29.9327 308.554 39.7036 306.193 48.1302C303.912 56.2535 293.451 53.9653 287.79 51.677C277.556 47.5194 268.367 40.1786 261.047 31.7925C260.056 34.5454 258.688 37.1621 257.187 39.6464L254.283 36.6774C256.087 33.7243 257.424 30.5049 258.246 27.1353C258.551 25.7566 260.623 25.1102 261.557 26.2543C268.905 35.3788 278.563 43.8225 289.539 48.1016C293.853 49.7777 303.125 52.1747 302.559 44.5719C301.931 36.2312 294.634 28.2108 289.109 22.6846C282.532 15.9867 274.413 11.0431 265.48 8.29707C262.067 7.184 258.514 6.56761 254.928 6.46645Z" fill="white"/>
<path d="M190.765 0.162397C197.219 -0.323861 207.408 -0.163682 210.239 7.17023C210.319 7.37986 210.363 7.57908 210.377 7.76659C212.299 15.1888 210.677 22.7987 208.422 29.8928L204.165 31.4839C206.044 25.4772 208.156 14.487 206.395 8.24C206.378 8.17863 206.363 8.11813 206.351 8.05854C205.106 5.32823 200.987 4.59873 198.413 4.28129C193.766 3.70922 188.948 4.2012 184.374 5.07074C174.755 6.85193 165.524 10.338 157.106 15.368C153.885 17.351 148.215 21.1168 147.226 25.5336L155.553 21.6452L157.951 33.7966C160.755 33.7834 163.528 33.3763 165.49 33.062C174.972 31.5322 184.132 28.4033 192.588 23.806C192.89 23.6353 193.229 23.5462 193.575 23.5473C193.92 23.5485 194.259 23.6398 194.56 23.8125C194.86 23.9852 195.111 24.2333 195.288 24.5329C195.465 24.8325 195.563 25.1732 195.572 25.5222C195.99 32.141 195.724 30.7855 196.387 37.3871L192.588 39.3549C192.069 33.9949 192.02 32.5908 191.786 28.7097C181.67 33.8138 169.889 37.5825 158.657 37.6558C158.032 37.6601 157.391 37.6442 156.74 37.6048L154.699 24.5329L143.887 29.5162L143.143 26.9697C143.06 19.3007 151.497 13.8116 157.327 10.5912C167.488 4.97921 179.183 1.02622 190.765 0.162397Z" fill="white"/>
<path d="M349.226 143.825C348.553 139.993 345.745 136.577 343.152 133.86C339.628 130.17 335.501 127.12 330.953 124.844C326.56 122.665 321.601 121.126 316.653 121.555C313.704 121.812 309.017 122.647 307.97 126.017C307.109 128.797 309.481 131.4 311.219 133.214C314.015 136.131 317.18 138.683 319.784 141.795C322.762 145.359 323.809 148.659 322.801 153.282C321.458 158.959 318.707 164.197 314.808 168.504C311.825 171.868 307.522 175.821 302.779 175.999C302.284 175.921 301.784 175.891 301.284 175.907L300.797 175.787C301.469 176.264 301.72 176.805 301.55 177.412C301.711 177.003 301.832 176.579 301.912 176.147C302.479 174.397 303.214 172.715 303.798 170.964C307.302 160.518 307.126 148.968 299.473 140.364C292.04 132.006 287.381 121.566 283.73 111.04C281.753 105.413 280.142 99.6607 278.907 93.8209C277.859 88.7696 277.554 83.7182 276.954 78.6039C274.984 61.808 268.762 44.5659 255.289 33.7366C250.002 29.5212 243.874 26.514 237.326 24.922C230.779 23.3301 223.967 23.1911 217.361 24.5149C203.3 27.215 191.05 36.1336 182.887 47.8667C178.14 54.8162 174.687 62.5823 172.697 70.7837C170.512 79.5135 170.263 88.4034 169.731 97.3392C167.614 132.985 164.353 168.573 161.058 204.121C160.983 204.922 160.907 205.723 160.832 206.524C160.831 206.962 160.974 207.388 161.236 207.737C161.499 208.085 161.868 208.336 162.287 208.452C171.593 209.997 181.03 210.929 190.433 211.587C208.208 212.834 226.453 213.04 244.007 209.59C248.183 208.8 252.294 207.688 256.303 206.267C257.242 205.923 258.199 205.357 259.071 205.203C259.966 205.149 260.865 205.181 261.754 205.3C269.476 205.563 277.203 205.786 284.93 205.872C302.003 206.118 319.563 205.397 333.427 193.99C348.207 181.828 351.808 162.023 349.238 143.803C348.881 141.263 345.06 142.344 345.416 144.867C347.652 160.724 344.777 177.961 332.742 189.299C319.971 201.313 302.479 202.102 285.977 201.885C278.312 201.787 270.653 201.57 262.988 201.313C261.618 201.267 260.067 200.998 258.697 201.164C256.942 201.376 255.103 202.457 253.416 203.012C251.519 203.635 249.6 204.156 247.664 204.659C230.817 208.835 212.952 208.812 195.726 207.886C184.869 207.385 174.049 206.285 163.311 204.591L164.766 206.518C167.659 175.701 170.353 144.861 172.561 113.986C173.807 96.5268 172.969 78.0605 179.835 61.6478C185.519 48.1012 196.014 36.3738 209.731 30.8934C221.771 26.0881 235.527 26.3912 246.94 32.8041C260.826 40.6186 268.547 55.5553 271.729 70.8352C272.787 75.9209 273.121 81.0238 273.687 86.1724C274.283 91.2472 275.25 96.2703 276.58 101.201C279.495 112.31 283.583 123.42 289.396 133.334C290.556 135.327 291.826 137.252 293.2 139.1C294.842 141.291 296.857 143.179 298.38 145.45C301.743 150.479 302.733 156.485 301.856 162.429C301.239 166.599 299.75 170.484 298.329 174.443C297.401 177.023 297.259 179.196 300.48 179.831C309.719 181.656 318.295 171.794 322.433 164.729C325.003 160.347 326.894 155.375 327.211 150.261C327.46 146.297 325.671 142.87 323.288 139.844C320.786 136.675 317.712 134.072 314.859 131.263C313.846 130.262 310.947 127.922 312.238 126.835C313.727 125.576 316.818 125.491 318.635 125.531C321.209 125.633 323.747 126.168 326.147 127.115C331.118 129.058 335.641 132.014 339.433 135.799C341.935 138.248 344.777 141.325 345.411 144.952C345.852 147.424 349.673 146.348 349.226 143.825Z" fill="white"/>
<path d="M223.604 83.7933C223.202 93.118 208.371 93.1352 207.963 83.7933C207.85 81.2247 203.887 81.2133 204 83.7933C204.141 86.8388 205.451 89.709 207.651 91.7949C209.852 93.8808 212.77 95.0182 215.786 94.9658C222.081 94.9658 227.295 90.2004 227.567 83.8162C227.68 81.2419 223.717 81.2476 223.604 83.8162V83.7933Z" fill="white"/>
<path d="M243.249 83.7933C242.847 93.118 228.016 93.1352 227.608 83.7933C227.495 81.2247 223.532 81.2133 223.646 83.7933C223.787 86.8378 225.095 89.7072 227.295 91.7929C229.494 93.8786 232.41 95.0167 235.426 94.9658C241.721 94.9658 246.935 90.2004 247.206 83.8162C247.32 81.2419 243.357 81.2476 243.244 83.8162L243.249 83.7933Z" fill="white"/>
<path d="M233.067 95.2337C232.665 104.558 217.834 104.576 217.426 95.2337C217.313 92.6651 213.35 92.6537 213.463 95.2337C213.604 98.2782 214.913 101.148 217.112 103.233C219.311 105.319 222.228 106.457 225.244 106.406C231.539 106.406 236.752 101.641 237.024 95.2566C237.137 92.6823 233.175 92.688 233.061 95.2566L233.067 95.2337Z" fill="white"/>
<path d="M263.642 66.6987C263.376 59.2618 257.188 53.7185 249.897 53.7185C242.606 53.7185 236.424 59.2676 236.152 66.6987C236.062 69.2788 240.024 69.273 240.115 66.6987C240.54 54.9885 259.255 54.9828 259.674 66.6987C259.764 69.2673 263.727 69.2788 263.636 66.6987H263.642Z" fill="white"/>
<path d="M216.678 66.3622C216.412 58.9253 210.225 53.382 202.934 53.382C195.642 53.382 189.461 58.9253 189.195 66.3622C189.104 68.9422 193.067 68.9365 193.157 66.3622C193.582 54.652 212.297 54.6462 212.716 66.3622C212.806 68.9308 216.769 68.9422 216.678 66.3622V66.3622Z" fill="white"/>
<path d="M232.935 78.0093C232.691 80.0859 228.123 81.3902 226.577 81.539C224.415 81.7449 219.649 80.8639 218.703 78.3811C218.477 77.8091 218.177 78.7759 218.703 77.975C218.998 77.5459 219.932 77.4029 220.401 77.2313C221.954 76.7657 223.565 76.5287 225.185 76.5276C226.589 76.499 232.703 76.459 233.003 78.5413C233.365 81.0813 237.18 80.0001 236.824 77.4773C236.11 72.4488 227.268 72.3287 223.707 72.5918C220.441 72.8607 213.32 74.2108 214.65 79.0905C215.901 83.6671 222.456 85.8238 226.572 85.5434C230.687 85.2631 236.343 82.6831 236.892 78.0093C237.22 75.4522 233.252 75.475 232.935 78.0093Z" fill="white"/>
<path d="M222.931 90.5205L222.721 94.4049C222.721 94.9359 222.93 95.4452 223.302 95.8207C223.673 96.1962 224.177 96.4071 224.703 96.4071C225.228 96.4071 225.732 96.1962 226.104 95.8207C226.475 95.4452 226.684 94.9359 226.684 94.4049L226.899 90.5205C226.899 89.9895 226.69 89.4802 226.319 89.1048C225.947 88.7293 225.443 88.5183 224.918 88.5183C224.392 88.5183 223.888 88.7293 223.517 89.1048C223.145 89.4802 222.936 89.9895 222.936 90.5205H222.931Z" fill="white"/>
</svg>
